<svg width="18" height="18" viewBox="0 0 18 18" fill="none" xmlns="http://www.w3.org/2000/svg">
<path d="M17.4643 2.32541C17.4643 1.95998 17.3192 1.60952 17.0608 1.35112C16.8024 1.09272 16.4519 0.947555 16.0865 0.947555L5.06366 0.878662C4.69823 0.878662 4.34777 1.02383 4.08938 1.28223C3.83098 1.54062 3.68581 1.89108 3.68581 2.25651C3.68581 2.62194 3.83098 2.9724 4.08938 3.2308C4.34777 3.4892 4.69823 3.63437 5.06366 3.63437H12.7245L1.32969 15.0568C1.20054 15.1848 1.09804 15.3372 1.02809 15.5051C0.958134 15.673 0.922119 15.8531 0.922119 16.035C0.922119 16.2169 0.958134 16.397 1.02809 16.5649C1.09804 16.7328 1.20054 16.8852 1.32969 17.0133C1.45777 17.1425 1.61017 17.245 1.77807 17.3149C1.94597 17.3849 2.12607 17.4209 2.30796 17.4209C2.48985 17.4209 2.66995 17.3849 2.83785 17.3149C3.00575 17.245 3.15815 17.1425 3.28624 17.0133L14.7086 5.59092V13.2793C14.7086 13.6448 14.8538 13.9952 15.1122 14.2536C15.3706 14.512 15.721 14.6572 16.0865 14.6572C16.4519 14.6572 16.8024 14.512 17.0608 14.2536C17.3192 13.9952 17.4643 13.6448 17.4643 13.2793V2.32541Z" fill="#76DBD3"/>
</svg>
