<svg width="51" height="51" viewBox="0 0 51 51" fill="none" xmlns="http://www.w3.org/2000/svg">
<path d="M15.1604 23.0583C15.2886 23.2093 15.4461 23.3341 15.6238 23.4256C15.8015 23.5171 15.9959 23.5735 16.1959 23.5915C16.396 23.6095 16.5977 23.5888 16.7895 23.5306C16.9814 23.4723 17.1596 23.3777 17.3139 23.2522L23.973 17.8391V35.5248C23.973 35.9203 24.1339 36.2996 24.4204 36.5792C24.7068 36.8589 25.0953 37.016 25.5003 37.016C25.9054 37.016 26.2939 36.8589 26.5803 36.5792C26.8667 36.2996 27.0277 35.9203 27.0277 35.5248V17.8391L33.6868 23.2522C33.8412 23.3775 34.0194 23.4719 34.2112 23.53C34.403 23.5881 34.6047 23.6087 34.8047 23.5907C35.0046 23.5727 35.199 23.5164 35.3767 23.4251C35.5544 23.3337 35.7119 23.2091 35.8403 23.0583C35.9687 22.9075 36.0654 22.7335 36.1248 22.5463C36.1843 22.359 36.2055 22.1621 36.187 21.9669C36.1686 21.7716 36.111 21.5818 36.0174 21.4083C35.9238 21.2349 35.7962 21.081 35.6417 20.9557L26.4778 13.4997L26.2487 13.3655L26.0502 13.2611C25.6963 13.1278 25.3043 13.1278 24.9505 13.2611L24.7519 13.3655L24.5228 13.4997L15.3589 20.9557C15.2043 21.0809 15.0764 21.2346 14.9827 21.4081C14.889 21.5816 14.8313 21.7715 14.8128 21.9668C14.7944 22.1621 14.8156 22.3591 14.8752 22.5464C14.9349 22.7337 15.0318 22.9076 15.1604 23.0583Z" fill="url(#paint0_linear_230_69)"/>
<circle cx="25.5" cy="25.5" r="24" stroke="url(#paint1_linear_230_69)" stroke-width="3"/>
<defs>
<linearGradient id="paint0_linear_230_69" x1="25.4999" y1="13.1611" x2="25.4999" y2="37.016" gradientUnits="userSpaceOnUse">
<stop stop-color="#76DBD3"/>
<stop offset="1" stop-color="#9991FF"/>
</linearGradient>
<linearGradient id="paint1_linear_230_69" x1="25.5" y1="0" x2="25.5" y2="51" gradientUnits="userSpaceOnUse">
<stop stop-color="#76DBD3"/>
<stop offset="1" stop-color="#9991FF"/>
</linearGradient>
</defs>
</svg>
