<svg width="18" height="18" viewBox="0 0 18 18" fill="none" xmlns="http://www.w3.org/2000/svg">
<path d="M17.3718 2.32541C17.3718 1.95998 17.2266 1.60952 16.9682 1.35112C16.7098 1.09272 16.3594 0.947555 15.9939 0.947555L4.97113 0.878662C4.60571 0.878662 4.25524 1.02383 3.99685 1.28223C3.73845 1.54062 3.59328 1.89108 3.59328 2.25651C3.59328 2.62194 3.73845 2.9724 3.99685 3.2308C4.25524 3.4892 4.60571 3.63437 4.97113 3.63437H12.632L1.23716 15.0568C1.10801 15.1848 1.00551 15.3372 0.935557 15.5051C0.865605 15.673 0.82959 15.8531 0.82959 16.035C0.82959 16.2169 0.865605 16.397 0.935557 16.5649C1.00551 16.7328 1.10801 16.8852 1.23716 17.0133C1.36525 17.1425 1.51764 17.245 1.68554 17.3149C1.85345 17.3849 2.03354 17.4209 2.21543 17.4209C2.39732 17.4209 2.57742 17.3849 2.74532 17.3149C2.91322 17.245 3.06562 17.1425 3.19371 17.0133L14.6161 5.59092V13.2793C14.6161 13.6448 14.7613 13.9952 15.0197 14.2536C15.2781 14.512 15.6285 14.6572 15.9939 14.6572C16.3594 14.6572 16.7098 14.512 16.9682 14.2536C17.2266 13.9952 17.3718 13.6448 17.3718 13.2793V2.32541Z" fill="#9991FF"/>
</svg>
