<svg width="58" height="65" viewBox="0 0 58 65" fill="none" xmlns="http://www.w3.org/2000/svg">
<path d="M1.41362 16.2396C1.41362 5.51992 7.75412 0 17.199 0C26.644 0 32.9775 5.45727 32.9775 16.2396V32.9385H25.2789V16.2396C25.2789 10.1349 22.0428 7.21139 17.1921 7.21139C12.3415 7.21139 9.10538 10.1349 9.10538 16.2396V32.9385H1.41362V16.2396Z" fill="#1E2D32"/>
<path d="M25.2789 48.7604C25.2789 59.4801 31.6194 65 41.0573 65C50.4953 65 56.8358 59.5427 56.8358 48.7604V32.0615H49.1372V48.7604C49.1372 54.8651 45.9011 57.7886 41.0504 57.7886C36.1998 57.7886 32.9637 54.8651 32.9637 48.7604V32.0615H25.265V48.7604H25.2789Z" fill="#1E2D32"/>
<path d="M47.7859 24.4812C47.7859 21.495 49.9202 19.2814 52.893 19.2814C55.8657 19.2814 58 21.488 58 24.4812C58 27.4743 55.8657 29.6113 52.893 29.6113C49.9202 29.6113 47.7859 27.4673 47.7859 24.4812Z" fill="#1E2D32"/>
<path d="M0 40.5397C0 37.5535 2.13429 35.34 5.10705 35.34C8.07981 35.34 10.2141 37.5466 10.2141 40.5397C10.2141 43.5329 8.07981 45.6698 5.10705 45.6698C2.13429 45.6698 0 43.5259 0 40.5397Z" fill="#1E2D32"/>
</svg>
