<svg width="119" height="49" viewBox="0 0 119 49" fill="none" xmlns="http://www.w3.org/2000/svg">
<path d="M0 30.4382C0 19.5222 6.39898 13.9011 15.924 13.9011C25.4491 13.9011 31.848 19.4584 31.848 30.4382V47.4432H24.0783V30.4382C24.0783 24.2218 20.8124 21.2447 15.917 21.2447C11.0216 21.2447 7.7557 24.2218 7.7557 30.4382V47.4432H0V30.4382Z" fill="#76DBD3"/>
<path d="M36.9463 31.0965C36.9463 21.1728 44.1285 13.8931 54.311 13.8931C64.4934 13.8931 71.6756 21.1728 71.6756 31.0965C71.6756 41.0202 64.4934 48.2999 54.311 48.2999C44.1285 48.2999 36.9463 41.0202 36.9463 31.0965ZM63.7731 31.0965C63.7731 25.3408 59.9896 21.2366 54.311 21.2366C48.6323 21.2366 44.7789 25.3408 44.7789 31.0965C44.7789 36.8522 48.6323 40.9564 54.311 40.9564C59.9896 40.9564 63.7731 36.8522 63.7731 31.0965Z" fill="#76DBD3"/>
<path d="M76.6409 5.295C76.6409 2.2541 78.7948 0 81.795 0C84.7952 0 86.9492 2.24701 86.9492 5.295C86.9492 8.34299 84.7952 10.5191 81.795 10.5191C78.7948 10.5191 76.6409 8.3359 76.6409 5.295ZM77.8787 14.7579H85.6484V47.4423H77.8787V14.7509V14.7579Z" fill="#76DBD3"/>
<path d="M91.9145 37.7808H99.7471C99.81 39.964 101.705 41.4171 105.489 41.4171C109.468 41.4171 111.167 39.7655 111.167 37.7808C111.167 35.2644 108.293 34.9384 104.838 34.4705C99.88 33.8113 92.5649 32.9466 92.5649 24.9438C92.5649 18.2595 97.5931 13.8931 105.356 13.8931C113.119 13.8931 118.084 18.3942 118.28 24.1499H110.58C110.384 22.1652 108.559 20.7759 105.489 20.7759C102.097 20.7759 100.397 22.4274 100.397 24.3484C100.397 26.8647 103.335 27.2617 106.796 27.7224C111.104 28.3179 119 29.1756 119 37.313C119 43.9264 113.713 48.2928 105.489 48.2928C97.2644 48.2928 92.1103 43.8626 91.9075 37.7737L91.9145 37.7808Z" fill="#76DBD3"/>
</svg>
