<svg width="34" height="34" viewBox="0 0 34 34" fill="none" xmlns="http://www.w3.org/2000/svg">
<g clip-path="url(#clip0_230_223)">
<path d="M29.7501 5.66658C29.7353 5.53644 29.7068 5.40822 29.6651 5.28408V5.15658C29.5971 4.99892 29.5011 4.85491 29.3817 4.73158C29.2615 4.61862 29.1225 4.52753 28.9709 4.46242H28.8434C28.7128 4.3627 28.5634 4.29041 28.4042 4.24991H28.3334C28.1925 4.22854 28.0493 4.22854 27.9084 4.24991L2.40839 12.7499C2.12496 12.8431 1.87818 13.0233 1.70323 13.265C1.52827 13.5067 1.43408 13.7974 1.43408 14.0957C1.43408 14.3941 1.52827 14.6848 1.70323 14.9265C1.87818 15.1682 2.12496 15.3484 2.40839 15.4416L14.4926 19.4649L18.5159 31.5491C18.6091 31.8325 18.7893 32.0793 19.031 32.2543C19.2726 32.4292 19.5634 32.5234 19.8617 32.5234C20.1601 32.5234 20.4508 32.4292 20.6925 32.2543C20.9341 32.0793 21.1144 31.8325 21.2076 31.5491L29.7076 6.04908C29.7391 5.92411 29.7534 5.79542 29.7501 5.66658ZM23.0917 8.91075L15.2009 16.8016L7.31006 14.1666L23.0917 8.91075ZM19.8334 26.6899L17.1984 18.7991L25.0892 10.9082L19.8334 26.6899Z" fill="black"/>
</g>
<defs>
<clipPath id="clip0_230_223">
<rect width="34" height="34" fill="white"/>
</clipPath>
</defs>
</svg>
